<?xml version="1.0" encoding="utf-8"?>
<!-- Generator: Adobe Illustrator 13.0.2, SVG Export Plug-In . SVG Version: 6.00 Build 14948)  -->
<!DOCTYPE svg PUBLIC "-//W3C//DTD SVG 1.0//EN" "http://www.w3.org/TR/2001/REC-SVG-20010904/DTD/svg10.dtd">
<svg version="1.0" id="Logo_-_font_copy_2" xmlns="http://www.w3.org/2000/svg" xmlns:xlink="http://www.w3.org/1999/xlink" x="0px"
	 y="0px" width="800px" height="600px" viewBox="0 0 800 600" enable-background="new 0 0 800 600" xml:space="preserve">
<g>
	<path d="M73.167,494.0361v41.4531H54.6455V405.8408h38.1006c28.2231,0,41.9824,9.5244,41.9824,29.1045v29.8105
		c0,19.7559-13.7593,29.2803-41.9824,29.2803H73.167z M73.167,422.2451v55.3867h19.7559c13.9351,0,23.6372-3.1748,23.6372-13.7598
		v-25.9287c0-12.5234-8.9971-15.6982-22.5786-15.6982H73.167z"/>
	<path d="M231.9243,494.0361H185.71c-28.2227,0-37.7485-9.1719-37.7485-26.9883c0-19.7559,9.5259-30.5156,37.7485-30.5156h27.6934
		v-1.4102c0-12.5244-8.6436-12.877-22.2251-12.877H156.252v-16.4043h33.6914c28.2231,0,41.981,9.5244,41.981,29.1045V494.0361z
		 M185.5332,477.6318h27.8701v-24.8711h-27.8701c-13.9346,0-19.4033,3.7041-19.4033,14.2871
		C166.1299,473.75,171.9512,477.6318,185.5332,477.6318z"/>
	<path d="M289.1216,422.2559c-13.5835,0-22.5786,3.1758-22.5786,15.6992v25.9316c0,10.583,9.7017,13.7588,23.6348,13.7588h21.4214
		v-55.3896H289.1216z M330.1064,506.3965c0,19.5811-13.7588,29.1064-41.9819,29.1064h-34.3608v-16.4053h35.5957
		c13.583,0,22.2339-3.1748,22.2339-15.6982l0.0059-9.3486H290.356c-28.2227,0-41.9814-9.5273-41.9814-29.2852V434.958
		c0-19.5811,13.7588-29.1074,41.9814-29.1074h39.7646L330.1064,506.3965z"/>
	<path d="M347.4668,435.1221c0-19.7568,11.8179-29.2813,40.042-29.2813h10.2295c28.2227,0,38.2773,13.4043,38.2773,29.2813v25.3994
		h-70.3789v1.4121c0,12.5234,8.9951,15.6982,22.5776,15.6982h43.9224v16.4043h-42.6875c-28.2236,0-41.9824-9.5244-41.9824-29.1045
		V435.1221z M365.6367,444.293h52.2109v-8.291c0-6.7012-3.3516-13.7568-16.9336-13.7568h-16.7559
		c-11.1143,0-18.5215,4.5859-18.5215,13.7568V444.293z"/>
	<path d="M455.4238,365.2686h23.8135v68.6182c9.5234-5.1162,22.5781-16.7568,28.5723-28.0459h23.9912
		c-5.6445,12.876-12.5234,22.0488-19.9316,28.9268c17.8154,17.2871,24.8701,36.8672,26.457,59.2686h-24.165
		c-0.5283-18.874-7.4072-34.749-20.1084-45.5098c-4.4102,2.8223-9.5244,5.4688-14.8154,8.1152v37.3945h-23.8135V365.2686z"/>
	<path d="M553.5039,371.4434c0-2.292,0-6.1748,7.2314-6.1748h12.3486c2.6445,0,6.7012,0,6.7012,6.5283v9.3486
		c0,2.4688,0,6.7012-7.0537,6.7012h-12.1699c-2.4727,0-7.0576,0-7.0576-7.0557V371.4434z M554.7383,405.8408h23.8125v88.1953
		h-23.8125V405.8408z"/>
	<path d="M628.2959,405.8408h20.4619v19.7559h-20.4619v34.748c0,6.1729,4.2344,13.7588,9.5264,13.7588h13.4053v19.9326h-19.0498
		c-15.7002,0-27.5195-12.5234-27.5195-28.7529v-39.6865h-8.1143v-19.7559h8.1143v-17.8164h23.6377V405.8408z"/>
	<path d="M664.457,436.1797c0-20.4629,11.8203-30.3389,40.2188-30.3389h9.5254c28.5762,0,38.8066,13.9346,38.8066,30.3389v25.0469
		h-65.2666c1.0596,7.4092,7.9385,12.877,17.6396,12.877h43.9229v19.9326h-42.6875c-28.4004,0-42.1592-9.8779-42.1592-30.1641
		V436.1797z M687.7412,441.4707h41.8066v-6.1729c0-4.5869-2.4697-9.5254-12.3486-9.5254h-15.5215
		c-8.292,0-13.9365,3.1738-13.9365,9.5254V441.4707z"/>
</g>
<g>
	<polygon fill="#E80022" points="473.791,126.978 525.9902,270.4556 579.6992,249.6694 510.7842,60.2417 313.6245,102.1826 
		324.4609,158.7466 	"/>
	<polygon fill="#748282" points="424.5596,215.7949 455.5654,301.0127 508.3154,277.5933 461.5537,149.0586 327.7754,177.519 
		335.8682,234.6616 	"/>
	<polygon fill="#B6B1B1" points="438.3184,309.3496 348.2715,353.4287 337.937,253.7061 412.3203,237.8774 	"/>
</g>
</svg>
